<?xml version="1.0" encoding="utf-8"?>
<!-- Generator: Adobe Illustrator 21.0.0, SVG Export Plug-In . SVG Version: 6.00 Build 0)  -->
<svg version="1.1" id="Layer_1" xmlns="http://www.w3.org/2000/svg" xmlns:xlink="http://www.w3.org/1999/xlink" x="0px" y="0px"
	 viewBox="0 0 504 504" style="enable-background:new 0 0 504 504;" xml:space="preserve">
<style type="text/css">
	.st0{fill:#FFEBB7;}
	.st1{fill:#5C546A;}
	.st2{fill:#00C37A;}
	.st3{fill:#009BCA;}
	.st4{fill:#E6BE94;}
	.st5{fill:#FF4F19;}
</style>
<g>
	<g>
		<path class="st0" d="M479.8,476h-375c-40.3,0-73-32.7-73-73v-14c0-40.3,32.7-73,73-73h375V476z"/>
	</g>
	<g>
		<rect x="47.8" y="332" class="st1" width="40" height="128"/>
	</g>
	<g>
		<path class="st0" d="M441.8,292h-426V180h426c12.1,0,22,9.9,22,22v68C463.8,282.1,453.9,292,441.8,292z"/>
	</g>
	<g>
		<rect x="71.8" y="36" class="st0" width="408" height="120"/>
	</g>
	<g>
		<path class="st2" d="M480,492H112c-52.9,0-96-43.1-96-96s43.1-96,96-96h368c8.8,0,16,7.2,16,16s-7.2,16-16,16H112
			c-35.3,0-64,28.7-64,64s28.7,64,64,64h368c8.8,0,16,7.2,16,16S488.8,492,480,492z"/>
	</g>
	<g>
		<g>
			<path class="st3" d="M432,300H8c-4.4,0-8-3.6-8-8s3.6-8,8-8h424c13.2,0,24-10.8,24-24v-48c0-13.2-10.8-24-24-24H8
				c-4.4,0-8-3.6-8-8s3.6-8,8-8h424c22.1,0,40,17.9,40,40v48C472,282.1,454.1,300,432,300z"/>
		</g>
	</g>
	<g>
		<path class="st4" d="M479.8,76h-368c-4.4,0-8-3.6-8-8l0,0c0-4.4,3.6-8,8-8h368V76z"/>
	</g>
	<g>
		<path class="st4" d="M479.8,108h-368c-4.4,0-8-3.6-8-8l0,0c0-4.4,3.6-8,8-8h368V108z"/>
	</g>
	<g>
		<path class="st4" d="M479.8,140h-368c-4.4,0-8-3.6-8-8l0,0c0-4.4,3.6-8,8-8h368V140z"/>
	</g>
	<g>
		<path class="st4" d="M15.8,204h416c4.4,0,8,3.6,8,8l0,0c0,4.4-3.6,8-8,8h-416C15.8,220,15.8,204,15.8,204z"/>
	</g>
	<g>
		<path class="st4" d="M15.8,236h416c4.4,0,8,3.6,8,8l0,0c0,4.4-3.6,8-8,8h-416C15.8,252,15.8,236,15.8,236z"/>
	</g>
	<g>
		<path class="st4" d="M15.8,268h416c4.4,0,8,3.6,8,8l0,0c0,4.4-3.6,8-8,8h-416C15.8,284,15.8,268,15.8,268z"/>
	</g>
	<g>
		<path class="st5" d="M488,172H104c-26.5,0-48-21.5-48-48V60c0-26.5,21.5-48,48-48h384c8.8,0,16,7.2,16,16s-7.2,16-16,16H104
			c-8.8,0-16,7.2-16,16v64c0,8.8,7.2,16,16,16h384c8.8,0,16,7.2,16,16S496.8,172,488,172z"/>
	</g>
	<g>
		<path class="st4" d="M111.8,444c-4.4,0-8,3.6-8,8s3.6,8,8,8h368v-16H111.8z"/>
	</g>
	<g>
		<path class="st4" d="M111.8,412c-4.4,0-8,3.6-8,8s3.6,8,8,8h368v-16H111.8z"/>
	</g>
	<g>
		<path class="st4" d="M111.8,380c-4.4,0-8,3.6-8,8s3.6,8,8,8h368v-16H111.8z"/>
	</g>
	<g>
		<path class="st4" d="M111.8,348c-4.4,0-8,3.6-8,8s3.6,8,8,8h368v-16H111.8z"/>
	</g>
</g>
</svg>
